<svg width="256" height="256" viewBox="0 0 64 64" fill="none" xmlns="http://www.w3.org/2000/svg">
  <rect x="6" y="6" width="52" height="52" rx="16" fill="#F4EFE6" />
  <rect x="7" y="7" width="50" height="50" rx="15" stroke="#16181D" stroke-opacity="0.10" stroke-width="1.5" />

  <rect x="18" y="17.5" width="28" height="5" rx="2.5" fill="#16181D" />
  <rect x="29.5" y="22" width="5" height="24" rx="2.5" fill="#16181D" />

  <path
    d="M34.5 26H38.5C43.1944 26 47 29.8056 47 34.5C47 39.1944 43.1944 43 38.5 43H34.5V38H38C40.4853 38 42.5 36.433 42.5 34.5C42.5 32.567 40.4853 31 38 31H34.5V26Z"
    fill="#16181D"
  />

  <path
    d="M40.5 41.25C40.5 40.5596 41.0596 40 41.75 40H46.25C46.9404 40 47.5 40.5596 47.5 41.25V47.5L44.625 45.875L41.75 47.5V41.25H40.5Z"
    fill="#0F766E"
  />
</svg>
